<svg width="45" height="46" viewBox="0 0 45 46" fill="none" xmlns="http://www.w3.org/2000/svg">
<path d="M35.4254 27.9455C34.5069 26.9892 33.399 26.4778 32.2248 26.4778C31.0601 26.4778 29.9428 26.9797 28.9864 27.9361L25.9941 30.9189C25.7479 30.7863 25.5017 30.6632 25.265 30.5401C24.9241 30.3697 24.6021 30.2087 24.3275 30.0382C21.5246 28.258 18.9774 25.9381 16.5343 22.9363C15.3507 21.4402 14.5553 20.1808 13.9777 18.9024C14.7541 18.1922 15.4738 17.4536 16.1745 16.7435C16.4397 16.4783 16.7048 16.2037 16.9699 15.9386C18.9585 13.95 18.9585 11.3744 16.9699 9.38587L14.3848 6.80078C14.0913 6.50723 13.7883 6.20421 13.5042 5.9012C12.936 5.31411 12.3395 4.70808 11.724 4.13992C10.8055 3.23088 9.70704 2.74795 8.55179 2.74795C7.39655 2.74795 6.27918 3.23088 5.33226 4.13992L5.31332 4.15886L2.09379 7.40681C0.881725 8.61887 0.190472 10.0961 0.0389644 11.81C-0.188297 14.575 0.626056 17.1506 1.25102 18.8362C2.78504 22.9742 5.07659 26.8092 8.49498 30.9189C12.6425 35.8713 17.6328 39.7821 23.3332 42.5376C25.5112 43.5698 28.4182 44.7913 31.6662 44.9996C31.865 45.0091 32.0733 45.0186 32.2627 45.0186C34.4501 45.0186 36.2871 44.2326 37.7265 42.6702C37.7359 42.6512 37.7549 42.6418 37.7643 42.6228C38.2567 42.0263 38.8249 41.4865 39.4215 40.9089C39.8286 40.5207 40.2453 40.1135 40.6525 39.6874C41.5899 38.7121 42.0823 37.5757 42.0823 36.411C42.0823 35.2368 41.5804 34.11 40.624 33.1631L35.4254 27.9455ZM38.8154 37.9166C38.806 37.9166 38.806 37.9261 38.8154 37.9166C38.4461 38.3143 38.0674 38.6742 37.6602 39.0719C37.0447 39.659 36.4197 40.2745 35.8326 40.9657C34.8762 41.9884 33.7494 42.4713 32.2722 42.4713C32.1302 42.4713 31.9786 42.4713 31.8366 42.4619C29.0243 42.2819 26.4107 41.1835 24.4506 40.2461C19.091 37.6515 14.3848 33.968 10.474 29.2996C7.24504 25.4078 5.08606 21.8095 3.65621 17.946C2.77557 15.5882 2.45362 13.7512 2.59565 12.0183C2.69035 10.9104 3.11646 9.9919 3.90241 9.20596L7.13141 5.97695C7.5954 5.54137 8.0878 5.30464 8.57073 5.30464C9.16729 5.30464 9.65022 5.66447 9.95324 5.96748L9.98165 5.99589C10.5593 6.53564 11.1085 7.09432 11.6861 7.69088C11.9797 7.9939 12.2827 8.29691 12.5857 8.6094L15.1708 11.1945C16.1745 12.1982 16.1745 13.1262 15.1708 14.13C14.8962 14.4046 14.631 14.6792 14.3564 14.9443C13.561 15.7587 12.8035 16.5162 11.9797 17.2548C11.9607 17.2737 11.9418 17.2832 11.9323 17.3021C11.118 18.1165 11.2695 18.9119 11.4399 19.4517L11.4683 19.5369C12.1406 21.1656 13.0876 22.6996 14.5269 24.5272L14.5363 24.5366C17.1498 27.7562 19.9054 30.2655 22.945 32.1878C23.3332 32.434 23.731 32.6328 24.1097 32.8222C24.4506 32.9926 24.7726 33.1536 25.0472 33.3241C25.0851 33.343 25.1229 33.3714 25.1608 33.3904C25.4828 33.5513 25.7858 33.6271 26.0983 33.6271C26.8842 33.6271 27.3766 33.1347 27.5376 32.9737L30.7761 29.7352C31.098 29.4133 31.6093 29.025 32.2059 29.025C32.793 29.025 33.2759 29.3943 33.5695 29.7163L33.5884 29.7352L38.806 34.9528C39.7813 35.9186 39.7813 36.9129 38.8154 37.9166ZM24.2139 10.8252C26.6948 11.2418 28.9485 12.416 30.7476 14.2152C32.5468 16.0143 33.7115 18.268 34.1376 20.7489C34.2418 21.3739 34.7815 21.8095 35.397 21.8095C35.4728 21.8095 35.5391 21.8 35.6148 21.7906C36.3155 21.6769 36.7795 21.0141 36.6659 20.3134C36.1546 17.3116 34.7342 14.575 32.5657 12.4066C30.3973 10.2381 27.6607 8.81772 24.6589 8.30638C23.9582 8.19275 23.3048 8.65674 23.1817 9.348C23.0586 10.0392 23.5132 10.7116 24.2139 10.8252ZM44.781 19.9441C43.9383 15.0011 41.6088 10.5032 38.0295 6.92388C34.4501 3.34451 29.9522 1.01508 25.0093 0.172321C24.318 0.0492212 23.6647 0.522682 23.5416 1.21394C23.4279 1.91466 23.8919 2.56803 24.5927 2.69113C29.0053 3.4392 33.0297 5.5319 36.2303 8.72303C39.4309 11.9236 41.5142 15.948 42.2622 20.3607C42.3664 20.9857 42.9061 21.4213 43.5216 21.4213C43.5974 21.4213 43.6637 21.4118 43.7394 21.4023C44.4307 21.2982 44.9041 20.6353 44.781 19.9441Z" fill="#0B8D46"/>
</svg>
