<svg width="20" height="20" viewBox="0 0 20 20" fill="none" xmlns="http://www.w3.org/2000/svg">
<path fill-rule="evenodd" clip-rule="evenodd" d="M0.25 9.98657C0.25 4.60157 4.615 0.236572 10 0.236572C15.385 0.236572 19.75 4.60157 19.75 9.98657C19.75 15.3716 15.385 19.7366 10 19.7366C4.615 19.7366 0.25 15.3716 0.25 9.98657ZM13.61 8.17257C13.67 8.09262 13.7134 8.00149 13.7377 7.90452C13.762 7.80755 13.7666 7.70671 13.7514 7.60793C13.7361 7.50914 13.7012 7.4144 13.6489 7.32927C13.5965 7.24414 13.5276 7.17035 13.4463 7.11222C13.3649 7.0541 13.2728 7.01281 13.1753 6.9908C13.0778 6.96879 12.9769 6.96649 12.8785 6.98403C12.7801 7.00158 12.6862 7.03862 12.6023 7.09298C12.5184 7.14734 12.4462 7.21792 12.39 7.30057L9.154 11.8306L7.53 10.2066C7.38783 10.0741 7.19978 10.002 7.00548 10.0054C6.81118 10.0088 6.62579 10.0875 6.48838 10.225C6.35097 10.3624 6.27225 10.5477 6.26882 10.7421C6.2654 10.9364 6.33752 11.1244 6.47 11.2666L8.72 13.5166C8.79699 13.5935 8.8898 13.6528 8.99199 13.6902C9.09418 13.7277 9.20329 13.7424 9.31176 13.7335C9.42023 13.7246 9.52546 13.6921 9.62013 13.6384C9.7148 13.5847 9.79665 13.5111 9.86 13.4226L13.61 8.17257Z" fill="#0B8D46"/>
</svg>
