<svg width="38" height="55" viewBox="0 0 38 55" fill="none" xmlns="http://www.w3.org/2000/svg">
<path d="M35.1939 54.9683C35.9097 54.9683 36.5962 54.6839 37.1024 54.1777C37.6086 53.6716 37.8929 52.9851 37.8929 52.2693V12.477C37.8923 11.8503 37.7609 11.2306 37.5074 10.6574C37.2538 10.0843 36.8835 9.57029 36.4202 9.14826L28.7316 2.15785C27.9037 1.40462 26.8244 0.987546 25.7051 0.988282H2.80593C2.09011 0.988282 1.40361 1.27264 0.897452 1.7788C0.391291 2.28496 0.106934 2.97146 0.106934 3.68728V52.2693C0.106934 52.9851 0.391291 53.6716 0.897452 54.1777C1.40361 54.6839 2.09011 54.9683 2.80593 54.9683H35.1939ZM1.90627 52.2693V3.68728C1.90627 3.44868 2.00105 3.21984 2.16977 3.05112C2.33849 2.8824 2.56733 2.78762 2.80593 2.78762H25.7051C26.3768 2.78735 27.0245 3.03756 27.5216 3.48935L35.2101 10.4798C35.4882 10.7329 35.7104 11.0413 35.8625 11.3852C36.0146 11.7291 36.0933 12.101 36.0936 12.477V52.2693C36.0936 52.5079 35.9988 52.7367 35.8301 52.9054C35.6614 53.0741 35.4325 53.1689 35.1939 53.1689H2.80593C2.56733 53.1689 2.33849 53.0741 2.16977 52.9054C2.00105 52.7367 1.90627 52.5079 1.90627 52.2693Z" fill="#0B8D46"/>
<path d="M7.30422 51.3698H30.6955C31.4114 51.3698 32.0979 51.0855 32.604 50.5793C33.1102 50.0731 33.3945 49.3866 33.3945 48.6708V32.4768C33.3945 31.761 33.1102 31.0745 32.604 30.5684C32.0979 30.0622 31.4114 29.7778 30.6955 29.7778H7.30422C6.5884 29.7778 5.9019 30.0622 5.39574 30.5684C4.88958 31.0745 4.60522 31.761 4.60522 32.4768V48.6708C4.60522 49.3866 4.88958 50.0731 5.39574 50.5793C5.9019 51.0855 6.5884 51.3698 7.30422 51.3698ZM6.40456 48.6708V45.0722H10.9029V49.5705H7.30422C7.06562 49.5705 6.83678 49.4757 6.66806 49.307C6.49934 49.1383 6.40456 48.9094 6.40456 48.6708ZM18.1002 45.0722V49.5705H12.7022V45.0722H18.1002ZM12.7022 31.5772H18.1002V36.0755H12.7022V31.5772ZM19.8996 31.5772H25.2976V36.0755H19.8996V31.5772ZM25.2976 37.8748V43.2728H19.8996V37.8748H25.2976ZM31.5952 43.2728H27.0969V37.8748H31.5952V43.2728ZM25.2976 45.0722V49.5705H19.8996V45.0722H25.2976ZM30.6955 49.5705H27.0969V45.0722H31.5952V48.6708C31.5952 48.9094 31.5004 49.1383 31.3317 49.307C31.163 49.4757 30.9342 49.5705 30.6955 49.5705ZM31.5952 32.4768V36.0755H27.0969V31.5772H30.6955C30.9342 31.5772 31.163 31.6719 31.3317 31.8407C31.5004 32.0094 31.5952 32.2382 31.5952 32.4768ZM7.30422 31.5772H10.9029V36.0755C10.9029 36.5527 11.0925 37.0104 11.4299 37.3478C11.7673 37.6853 12.225 37.8748 12.7022 37.8748H18.1002V43.2728H6.40456V32.4768C6.40456 32.2382 6.49934 32.0094 6.66806 31.8407C6.83678 31.6719 7.06562 31.5772 7.30422 31.5772Z" fill="#0B8D46"/>
<path d="M10.6141 13.1875C12.9197 11.1236 15.9054 9.98243 18.9998 9.98243C22.0943 9.98243 25.08 11.1236 27.3856 13.1875C27.5609 13.3495 27.7933 13.4353 28.0318 13.4259C28.2703 13.4166 28.4953 13.3128 28.6573 13.1376C28.8193 12.9623 28.9051 12.7299 28.8957 12.4914C28.8864 12.2529 28.7826 12.0279 28.6074 11.8659C25.9659 9.50128 22.5451 8.19385 18.9998 8.19385C15.4546 8.19385 12.0338 9.50128 9.3923 11.8659C9.21705 12.0279 9.11333 12.2529 9.10397 12.4914C9.0946 12.7299 9.18036 12.9623 9.34237 13.1376C9.50438 13.3128 9.72938 13.4166 9.96787 13.4259C10.2064 13.4353 10.4388 13.3495 10.6141 13.1875Z" fill="#0B8D46"/>
<path d="M24.3981 16.3454C24.5834 16.3458 24.7642 16.289 24.916 16.1827C25.0677 16.0764 25.183 15.9259 25.246 15.7517C25.309 15.5775 25.3166 15.3881 25.2679 15.2093C25.2193 15.0306 25.1166 14.8712 24.9739 14.753C23.268 13.42 21.1652 12.6958 19.0001 12.6958C16.8351 12.6958 14.7323 13.42 13.0264 14.753C12.9356 14.8286 12.8606 14.9214 12.8056 15.026C12.7507 15.1306 12.7168 15.245 12.7061 15.3627C12.6954 15.4803 12.7079 15.599 12.743 15.7118C12.7781 15.8246 12.8351 15.9294 12.9108 16.0202C12.9864 16.111 13.0791 16.186 13.1837 16.241C13.2883 16.2959 13.4027 16.3297 13.5204 16.3404C13.6381 16.3512 13.7567 16.3386 13.8695 16.3035C13.9823 16.2684 14.0871 16.2114 14.1779 16.1358C15.5551 15.0598 17.2525 14.4754 19.0001 14.4754C20.7478 14.4754 22.4452 15.0598 23.8224 16.1358C23.9838 16.2709 24.1876 16.3451 24.3981 16.3454Z" fill="#0B8D46"/>
<path d="M22.1047 19.7393C22.2733 19.5706 22.3681 19.3418 22.3681 19.1032C22.3681 18.8647 22.2733 18.6359 22.1047 18.4671C21.2807 17.6455 20.1645 17.1841 19.0008 17.1841C17.8372 17.1841 16.721 17.6455 15.897 18.4671C15.811 18.5501 15.7425 18.6494 15.6954 18.7592C15.6482 18.8689 15.6234 18.987 15.6223 19.1065C15.6213 19.2259 15.6441 19.3444 15.6893 19.4549C15.7345 19.5655 15.8013 19.666 15.8858 19.7504C15.9703 19.8349 16.0707 19.9017 16.1813 19.9469C16.2919 19.9922 16.4103 20.0149 16.5298 20.0139C16.6493 20.0129 16.7673 19.988 16.8771 19.9409C16.9868 19.8937 17.0861 19.8252 17.1691 19.7393C17.6554 19.2537 18.3145 18.981 19.0017 18.981C19.6889 18.981 20.348 19.2537 20.8343 19.7393C21.003 19.9074 21.2314 20.0018 21.4695 20.0018C21.7076 20.0018 21.936 19.9074 22.1047 19.7393Z" fill="#0B8D46"/>
<path d="M18.1003 22.5027V22.5801C18.101 22.6962 18.125 22.8111 18.1709 22.9178C18.2168 23.0245 18.2838 23.1209 18.3677 23.2012C18.4516 23.2816 18.5509 23.3442 18.6595 23.3854C18.7681 23.4266 18.8839 23.4455 19 23.441C19.2426 23.4324 19.4722 23.3296 19.6402 23.1544C19.8081 22.9792 19.9012 22.7454 19.8997 22.5027C19.8997 22.2641 19.8049 22.0353 19.6362 21.8665C19.4674 21.6978 19.2386 21.603 19 21.603C18.7614 21.603 18.5326 21.6978 18.3638 21.8665C18.1951 22.0353 18.1003 22.2641 18.1003 22.5027Z" fill="#0B8D46"/>
</svg>
