<svg width="39" height="53" viewBox="0 0 39 53" fill="none" xmlns="http://www.w3.org/2000/svg">
<path d="M19.259 0.0332031C8.63938 0.0332031 0 8.67259 0 19.2923C0 22.7883 1.56791 26.5484 1.63362 26.707C2.14002 27.909 3.13922 29.776 3.85974 30.8703L17.0646 50.8782C17.605 51.6984 18.4049 52.1686 19.259 52.1686C20.1132 52.1686 20.9131 51.6984 21.4534 50.8794L34.6595 30.8703C35.3811 29.776 36.3792 27.909 36.8856 26.707C36.9513 26.5495 38.5181 22.7895 38.5181 19.2923C38.5181 8.67259 29.8787 0.0332031 19.259 0.0332031ZM34.7966 25.8279C34.3445 26.9052 33.4144 28.642 32.7676 29.623L19.5615 49.632C19.301 50.0274 19.2183 50.0274 18.9577 49.632L5.75166 29.623C5.10478 28.642 4.17468 26.9041 3.72266 25.8267C3.7034 25.7803 2.26577 22.3193 2.26577 19.2923C2.26577 9.92216 9.88896 2.29897 19.259 2.29897C28.6291 2.29897 36.2523 9.92216 36.2523 19.2923C36.2523 22.3239 34.8113 25.7939 34.7966 25.8279Z" fill="#0B8D46"/>
</svg>
