<svg width="50" height="36" viewBox="0 0 50 36" fill="none" xmlns="http://www.w3.org/2000/svg">
<path d="M45.1022 0.812012H4.34604C1.9448 0.812012 0 2.76889 0 5.15805V31.2343C0 33.6376 1.9591 35.5803 4.34604 35.5803H45.1022C47.4834 35.5803 49.4483 33.6459 49.4483 31.2343V5.15805C49.4483 2.77314 47.5112 0.812012 45.1022 0.812012ZM44.4936 3.70937L27.7973 20.3177C26.9764 21.1386 25.885 21.5906 24.7241 21.5906C23.5633 21.5906 22.4719 21.1385 21.6483 20.315L4.95468 3.70937H44.4936ZM2.89736 30.6446V5.7496L15.4176 18.2039L2.89736 30.6446ZM4.95651 32.683L17.4719 20.2472L19.6023 22.3664C20.9704 23.7346 22.7894 24.488 24.7241 24.488C26.6589 24.488 28.4779 23.7346 29.8433 22.3691L31.9764 20.2472L44.4918 32.683H4.95651ZM46.5509 30.6446L34.0307 18.2039L46.5509 5.7496V30.6446Z" fill="#0B8D46"/>
</svg>
