<svg width="58" height="59" viewBox="0 0 58 59" fill="none" xmlns="http://www.w3.org/2000/svg">
<path d="M12.6868 6.61794C12.2421 6.61794 11.8813 6.25712 11.8813 5.81239C11.8813 5.36766 12.2421 5.00684 12.6868 5.00684H35.4184C35.6324 5.00684 35.8254 5.09075 35.9701 5.22711L49.5303 17.1826C49.7107 17.342 49.803 17.5644 49.803 17.7867V50.7515C49.803 51.1963 49.4422 51.5571 48.9974 51.5571C48.5527 51.5571 48.1919 51.1963 48.1919 50.7515V18.1498L35.114 6.61803L12.6868 6.61794ZM32.2446 28.8082C33.0124 29.1669 33.7089 29.6578 34.3025 30.2515C34.8941 30.841 35.3849 31.5311 35.7458 32.2906H39.784V28.5334C39.784 28.0887 40.1448 27.7279 40.5896 27.7279C41.0343 27.7279 41.3951 28.0887 41.3951 28.5334V45.4623C41.3951 46.6874 40.8937 47.8035 40.084 48.6132L40.0798 48.6174C39.2701 49.4251 38.154 49.9265 36.931 49.9265H18.095C16.87 49.9265 15.7539 49.4251 14.9442 48.6153L14.94 48.6111C14.1323 47.8014 13.6309 46.6854 13.6309 45.4623V25.2795C13.6309 24.0544 14.1323 22.9384 14.9421 22.1286L14.9463 22.1244C15.756 21.3168 16.872 20.8154 18.095 20.8154H36.931C38.1183 20.8154 39.2029 21.2874 40.0043 22.0489C40.8098 22.8146 41.3322 23.8824 41.3888 25.0614C41.4098 25.504 41.0679 25.8816 40.6252 25.9026C40.1826 25.9236 39.805 25.5816 39.784 25.139C39.7462 24.3859 39.4127 23.7062 38.8967 23.2153C38.3848 22.7286 37.6925 22.4265 36.931 22.4265H32.2466V28.8081L32.2446 28.8082ZM39.784 33.9017H35.2171C34.892 33.9017 34.5878 33.7024 34.464 33.3814C34.1766 32.6262 33.7319 31.9465 33.1697 31.3885C32.8865 31.1053 32.5739 30.8536 32.2361 30.6354C32.1879 31.2019 31.9089 31.7116 31.4852 32.0871C31.0467 32.4773 30.4446 32.7185 29.7944 32.7185H25.2275C24.5751 32.7185 23.9751 32.4773 23.5346 32.0913L23.4758 32.0346C23.0856 31.6654 22.8297 31.1787 22.7835 30.6354C22.4458 30.8536 22.1332 31.1074 21.85 31.3906C21.3004 31.9381 20.8641 32.5989 20.5766 33.3331C20.476 33.6625 20.1697 33.9037 19.8068 33.9037H15.2399V36.3162H19.6306C19.983 36.3183 20.306 36.5512 20.4046 36.9057C20.648 37.7616 21.0906 38.5399 21.6801 39.1797C22.0094 39.5385 22.3829 39.8531 22.7919 40.1174V39.7734C22.7919 39.1357 23.0814 38.563 23.5471 38.1518C23.9834 37.7637 24.5834 37.5246 25.2358 37.5246H29.7838C30.4362 37.5246 31.0341 37.7658 31.4725 38.1497C31.9403 38.5609 32.2299 39.1357 32.2299 39.7734V40.1174C32.6389 39.8552 33.0123 39.5385 33.3396 39.1818C33.9186 38.5525 34.357 37.791 34.6025 36.9561C34.6801 36.5932 35.0032 36.3184 35.3913 36.3184H39.7841L39.784 33.9017ZM15.2399 32.2906H19.2781C19.639 31.529 20.1277 30.8389 20.7172 30.2515C21.3109 29.6599 22.0074 29.1669 22.7772 28.8082V22.4288H18.0929C17.3062 22.4288 16.5929 22.7497 16.0769 23.2658C15.5587 23.7839 15.2378 24.4972 15.2378 25.2839V32.2927L15.2399 32.2906ZM39.784 37.9251H35.9702C35.6387 38.7978 35.1436 39.5908 34.5227 40.2663C33.8808 40.9648 33.1004 41.5396 32.2278 41.9466V48.3196H36.9268C37.7135 48.3196 38.4268 47.9986 38.9428 47.4826C39.4609 46.9644 39.7819 46.2511 39.7819 45.4645V37.9251L39.784 37.9251ZM22.7938 41.9445C21.9212 41.5375 21.1408 40.9648 20.4989 40.2663C19.88 39.5929 19.385 38.7978 19.0535 37.9251H15.2418V45.4646C15.2418 46.2512 15.5628 46.9645 16.0788 47.4805C16.597 47.9987 17.3102 48.3196 18.0969 48.3196H22.7959V41.9467L22.7938 41.9445ZM30.6206 48.3175V39.769C30.6206 39.6158 30.5409 39.4669 30.4129 39.3536C30.2577 39.2173 30.0353 39.1312 29.7877 39.1312H25.2397C24.9901 39.1312 24.7698 39.2173 24.6145 39.3536C24.4866 39.4648 24.4069 39.6116 24.4069 39.769V48.3175H30.6225H30.6206ZM24.3899 22.4244V30.4611C24.3899 30.6058 24.4591 30.7443 24.5682 30.8555L24.5997 30.8806C24.757 31.0191 24.9815 31.1072 25.229 31.1072H29.7959C30.0435 31.1072 30.2658 31.0191 30.4232 30.8806C30.5532 30.7674 30.6351 30.6184 30.6351 30.4611V22.4244L24.3899 22.4244ZM16.1539 53.3372C16.5987 53.3372 16.9595 53.698 16.9595 54.1427C16.9595 54.5874 16.5987 54.9483 16.1539 54.9483H11.4801C10.599 54.9483 9.79137 54.6231 9.19977 54.1029C8.58095 53.5595 8.19702 52.798 8.19702 51.9547V10.9704C8.19702 10.1292 8.58302 9.36976 9.19977 8.82435C9.78928 8.30199 10.5969 7.97895 11.4822 7.97895H34.2954C34.5094 7.97895 34.7024 8.06286 34.8471 8.19922L46.5571 18.5248C46.7375 18.6842 46.8298 18.9066 46.8298 19.1289V51.9573C46.8298 52.8006 46.4439 53.5622 45.8271 54.1055L45.7726 54.1495C45.1873 54.6446 44.3985 54.9488 43.5426 54.9488H23.1058C22.661 54.9488 22.3002 54.588 22.3002 54.1432C22.3002 53.6985 22.661 53.3377 23.1058 53.3377H43.5426C44.0041 53.3377 44.4216 53.1825 44.7237 52.9307L44.7614 52.8951C45.0404 52.6496 45.2146 52.314 45.2146 51.9552V19.4899L33.9873 9.5902H11.4759C10.9955 9.5902 10.5655 9.76012 10.2571 10.0307C9.97599 10.2762 9.80397 10.6097 9.80397 10.9705V51.9549C9.80397 52.3136 9.97809 52.6472 10.2571 52.8947C10.5634 53.1674 10.9955 53.3352 11.4759 53.3352H16.1498L16.1539 53.3372ZM19.674 53.3372C20.1188 53.3372 20.4796 53.698 20.4796 54.1427C20.4796 54.5874 20.1188 54.9483 19.674 54.9483H19.588C19.1433 54.9483 18.7825 54.5874 18.7825 54.1427C18.7825 53.698 19.1433 53.3372 19.588 53.3372H19.674Z" fill="#0B8D46"/>
</svg>
