<svg width="45" height="43" viewBox="0 0 45 43" fill="none" xmlns="http://www.w3.org/2000/svg">
<path fill-rule="evenodd" clip-rule="evenodd" d="M19.8738 0.169989C25.3543 0.169989 30.3175 2.3906 33.9094 5.9849C37.5013 9.5768 39.7243 14.5403 39.7243 20.0205C39.7243 20.6388 39.6931 21.2619 39.6353 21.8899C39.5896 22.3927 39.5223 22.8883 39.4405 23.3743C40.3715 23.8603 41.2184 24.4858 41.9545 25.222C43.8166 27.0841 44.969 29.656 44.969 32.497C44.969 35.338 43.8166 37.9101 41.9545 39.7719C40.0924 41.6337 37.5206 42.7864 34.6796 42.7864C31.8386 42.7864 29.2664 41.634 27.4046 39.7719C27.0798 39.4471 26.7767 39.1007 26.4976 38.735C25.8697 38.9563 25.2297 39.1488 24.5753 39.3076C24.5392 39.3172 24.5032 39.3244 24.4671 39.3341C24.3396 39.3653 24.212 39.3942 24.0869 39.4207L24.0316 39.4327C23.9955 39.4399 23.9594 39.4471 23.9209 39.4568L23.6996 39.5049L23.3676 39.5626L23.3147 39.5722L22.9827 39.63L22.042 39.7527L21.1567 39.8297L20.216 39.8706H20.1607L20.1053 39.873H20.05L19.9947 39.8754H19.9393H19.884C19.8046 39.8754 19.7228 39.8754 19.6434 39.873H19.6194C19.5448 39.8706 19.4702 39.8706 19.3956 39.8682L19.3523 39.8657C19.2801 39.8633 19.2104 39.8609 19.1406 39.8585L19.0901 39.8561C19.0203 39.8537 18.9529 39.8513 18.8856 39.8465L18.8254 39.8441C18.7605 39.8417 18.6955 39.8369 18.6306 39.8321C18.6065 39.8297 18.58 39.8297 18.556 39.8273C18.5103 39.8248 18.4621 39.82 18.4164 39.8176C18.3731 39.8152 18.3274 39.8104 18.2841 39.808C18.248 39.8056 18.2119 39.8032 18.1759 39.7984C18.1157 39.7936 18.058 39.7888 17.9978 39.7815L17.9281 39.7743C13.2271 39.3148 9.00497 37.2169 5.84604 34.0556C2.25414 30.4637 0.0311279 25.5002 0.0311279 20.02C0.0311279 14.5395 2.25174 9.57625 5.84604 5.98435C9.43794 2.39245 14.4014 0.169434 19.8817 0.169434L19.8738 0.169989ZM35.1554 34.8042C35.3743 34.7297 35.5716 34.607 35.7304 34.4458C35.9998 34.1763 36.1658 33.8058 36.1658 33.3944C36.1658 32.983 35.9998 32.6126 35.7304 32.3431C35.4609 32.0736 35.0904 31.9076 34.679 31.9076C34.2701 31.9076 33.8972 32.0736 33.6277 32.3431C33.3583 32.6126 33.1923 32.9831 33.1923 33.3944C33.1923 33.8034 33.3583 34.1763 33.6277 34.4458C33.7817 34.5997 33.9717 34.7224 34.1811 34.797L34.169 35.9422C34.1666 36.2117 34.3832 36.4306 34.6526 36.433C34.9221 36.4354 35.141 36.2189 35.1434 35.9494L35.1554 34.8018L35.1554 34.8042ZM35.0375 33.0335C34.9461 32.9421 34.8186 32.8844 34.6766 32.8844C34.5347 32.8844 34.4096 32.9421 34.3157 33.0335C34.2243 33.125 34.1666 33.2525 34.1666 33.3944C34.1666 33.5364 34.2243 33.6615 34.3157 33.7553C34.4072 33.8467 34.5347 33.9045 34.6766 33.9045C34.8186 33.9045 34.9437 33.8467 35.0375 33.7553C35.1289 33.6639 35.1867 33.5364 35.1867 33.3944C35.1867 33.2549 35.1289 33.1274 35.0375 33.0335ZM38.6126 24.055H38.6102C37.4145 23.4969 36.0816 23.1841 34.6766 23.1841H34.5564C34.5155 23.1841 34.477 23.1865 34.4361 23.1865C34.3952 23.1865 34.3567 23.1889 34.3158 23.1913C34.2749 23.1937 34.2364 23.1937 34.1955 23.1961C34.1546 23.1985 34.1161 23.2009 34.0776 23.2033C34.0391 23.2057 33.9982 23.2081 33.9597 23.2105C33.9212 23.213 33.8803 23.2178 33.8418 23.2202C33.8033 23.2226 33.7624 23.2274 33.7239 23.2322C33.6854 23.237 33.6445 23.2394 33.606 23.2442C33.5675 23.249 33.5291 23.2539 33.4882 23.2587C33.4497 23.2635 33.4112 23.2683 33.3727 23.2731C33.3342 23.2779 33.2957 23.2851 33.2572 23.2899C33.2187 23.2948 33.1802 23.302 33.1417 23.3092C33.1032 23.3164 33.0647 23.3212 33.0262 23.3284C32.9877 23.3357 32.9492 23.3429 32.9107 23.3501C32.8723 23.3573 32.8362 23.3645 32.7977 23.3717C32.7592 23.379 32.7231 23.3886 32.6846 23.3958C32.6461 23.403 32.61 23.4126 32.5715 23.4199C32.533 23.4295 32.497 23.4367 32.4585 23.4463C32.4224 23.4559 32.3839 23.4656 32.3478 23.4752C32.3117 23.4848 32.2732 23.4944 32.2371 23.5041C32.201 23.5137 32.1625 23.5257 32.1264 23.5353C32.0904 23.545 32.0519 23.557 32.0158 23.5666C31.9797 23.5786 31.9436 23.5883 31.9051 23.6003C31.869 23.6123 31.8329 23.6244 31.7968 23.634C31.7608 23.646 31.7247 23.658 31.6886 23.6701C31.6525 23.6821 31.6164 23.6941 31.5803 23.7062C31.5442 23.7182 31.5081 23.7326 31.4721 23.7446C31.436 23.7567 31.3999 23.7711 31.3662 23.7855C31.3301 23.8 31.2964 23.812 31.2603 23.8264C31.2242 23.8409 31.1906 23.8553 31.1545 23.8697C31.1208 23.8842 31.0847 23.8986 31.051 23.9131C31.0173 23.9275 30.9813 23.9419 30.9476 23.9588C30.9139 23.9732 30.8778 23.99 30.8441 24.0045C30.8104 24.0189 30.7744 24.0358 30.7407 24.0526C30.707 24.0694 30.6733 24.0839 30.6396 24.1007C30.6059 24.1175 30.5723 24.1344 30.5386 24.1512C30.5049 24.1681 30.4712 24.1849 30.4375 24.2018C30.4039 24.2186 30.3702 24.2354 30.3365 24.2547C30.3028 24.2715 30.2715 24.2908 30.2379 24.3076C30.2042 24.3245 30.1729 24.3437 30.1392 24.3629C30.1055 24.3798 30.0743 24.399 30.0406 24.4183C30.0069 24.4375 29.9756 24.4544 29.9443 24.4736C29.9131 24.4929 29.8794 24.5121 29.8481 24.5314C29.8168 24.5506 29.7831 24.5698 29.7519 24.5915C29.7206 24.6107 29.6893 24.6324 29.658 24.6516C29.5955 24.6925 29.5329 24.7334 29.4704 24.7743C29.4391 24.796 29.4078 24.8152 29.379 24.8369C29.3477 24.8585 29.3164 24.8802 29.2875 24.9019C29.2563 24.9235 29.2274 24.9452 29.1961 24.9668C29.1648 24.9885 29.136 25.0101 29.1071 25.0342C29.0758 25.0558 29.047 25.0799 29.0181 25.1015C28.9892 25.1232 28.9579 25.1473 28.9291 25.1713C28.9002 25.1954 28.8713 25.217 28.8425 25.2411C28.5802 25.4504 28.33 25.6765 28.0943 25.9123C28.0197 25.9869 27.9475 26.0614 27.8777 26.1384L27.8705 26.1481C27.8537 26.1673 27.8368 26.1865 27.8176 26.2034L27.7935 26.2274C27.7767 26.2443 27.7623 26.2635 27.7454 26.2804L27.7214 26.3068C27.7045 26.3261 27.6877 26.3453 27.6708 26.3646L27.6492 26.3886C27.6324 26.4079 27.6155 26.4271 27.5987 26.4464L27.577 26.4728C27.5626 26.4897 27.5457 26.5089 27.5313 26.5282L27.5048 26.5595C27.4904 26.5763 27.476 26.5931 27.4615 26.61L27.4351 26.6437C27.4206 26.6605 27.4086 26.6773 27.3942 26.6942L27.3677 26.7279C27.3557 26.7447 27.3437 26.7591 27.3292 26.776L27.2979 26.8169L27.2643 26.8626L27.2306 26.9059L27.1969 26.9516L27.1656 26.9925L27.1295 27.043L27.1031 27.0815L27.067 27.132L27.0405 27.1705L27.0044 27.2211L26.978 27.262L26.9443 27.3125L26.9178 27.351L26.8817 27.4063L26.8601 27.44C26.848 27.4592 26.836 27.4785 26.824 27.4977L26.7999 27.5338C26.7879 27.5507 26.7759 27.5699 26.7663 27.5892L26.7398 27.6325C26.7302 27.6493 26.7181 27.6661 26.7085 27.6854L26.6845 27.7239C26.6724 27.7431 26.6628 27.76 26.6508 27.7792L26.6291 27.8177C26.6171 27.837 26.6075 27.8562 26.5954 27.8754L26.5738 27.9139C26.5618 27.9332 26.5521 27.9524 26.5425 27.9717L26.5209 28.0126C26.5112 28.0318 26.4992 28.0487 26.4896 28.0679L26.4655 28.1112C26.4559 28.1281 26.4463 28.1449 26.4391 28.1641C26.4318 28.1786 26.4246 28.193 26.415 28.2075C26.4054 28.2267 26.3958 28.2435 26.3861 28.2628L26.3693 28.2941C26.3573 28.3157 26.3452 28.3398 26.3356 28.3614L26.326 28.3831C26.314 28.4095 26.2995 28.436 26.2875 28.4625L26.2851 28.4673C26.2249 28.59 26.1696 28.7151 26.1167 28.8402L26.107 28.8618C26.095 28.8883 26.083 28.9172 26.0734 28.9436L26.0662 28.9605C26.0565 28.9845 26.0445 29.011 26.0349 29.0351L26.0228 29.0639C26.0132 29.0856 26.006 29.1072 25.9964 29.1289L25.9819 29.1674C25.9747 29.189 25.9651 29.2107 25.9579 29.2323L25.9435 29.2684C25.9362 29.2901 25.929 29.3117 25.9194 29.3334L25.905 29.3767C25.8977 29.3959 25.8905 29.4176 25.8833 29.4368L25.8689 29.4826C25.8617 29.5042 25.8544 29.5259 25.8472 29.5475L25.8328 29.5884C25.8256 29.6101 25.8183 29.6341 25.8111 29.6558L25.7991 29.6967C25.7919 29.7183 25.7847 29.74 25.7775 29.7616L25.7654 29.8025L25.7462 29.8699L25.7341 29.9108C25.7269 29.9325 25.7221 29.9541 25.7149 29.9782L25.7029 30.0191C25.6957 30.0431 25.6908 30.0648 25.6836 30.0888L25.674 30.1273C25.6692 30.149 25.662 30.173 25.6572 30.1971L25.6475 30.238C25.6427 30.2596 25.6355 30.2837 25.6307 30.3054L25.6066 30.4136L25.597 30.4593C25.5922 30.481 25.5874 30.5026 25.5826 30.5243L25.573 30.57C25.5681 30.5917 25.5633 30.6157 25.5585 30.6398L25.5513 30.6807C25.5465 30.7047 25.5417 30.7288 25.5369 30.7553L25.5296 30.7937C25.5248 30.8178 25.52 30.8419 25.5176 30.8659L25.5104 30.9116C25.5056 30.9333 25.5032 30.9549 25.4984 30.9766L25.4912 31.0199C25.4863 31.044 25.4839 31.068 25.4791 31.0921L25.4743 31.1258C25.4695 31.1522 25.4671 31.1787 25.4623 31.2051L25.4575 31.2364C25.4527 31.2653 25.4503 31.2918 25.4454 31.3206L25.4406 31.3519C25.4382 31.3784 25.4334 31.4072 25.431 31.4337L25.4262 31.4722C25.4238 31.4987 25.4214 31.5251 25.419 31.5516L25.4166 31.5732C25.4142 31.6045 25.4118 31.6358 25.4069 31.6671V31.6719C25.3901 31.8595 25.3805 32.0496 25.3733 32.2421V32.2565V32.2589V32.2613V32.2637C25.3733 32.2974 25.3709 32.3287 25.3709 32.3624V32.384V32.3864V32.3888V32.3912V32.3936V32.4923V32.4947V32.615C25.4021 35.1387 26.4391 37.4219 28.0967 39.0794C29.7832 40.7659 32.1096 41.8076 34.6812 41.8076C37.2531 41.8076 39.5819 40.7659 41.2658 39.0794C42.9523 37.3929 43.994 35.0665 43.994 32.4949C43.994 29.9233 42.9523 27.5942 41.2658 25.9103C40.5031 25.1477 39.6057 24.515 38.6169 24.053L38.6126 24.055ZM35.0471 22.2145C35.0688 22.2145 35.0904 22.2169 35.1121 22.2169L35.1482 22.2194H35.153C36.3391 22.2747 37.4722 22.5297 38.5212 22.9507C38.5813 22.5682 38.6294 22.1857 38.6655 21.8007C38.7185 21.2257 38.7473 20.6315 38.7473 20.018C38.7473 14.807 36.635 10.0892 33.2187 6.6728C29.8048 3.25649 25.0846 1.14416 19.8735 1.14416C14.6624 1.14416 9.94462 3.25649 6.52824 6.6728C3.11194 10.0891 0.9996 14.8069 0.9996 20.018C0.9996 24.2619 2.39978 28.1762 4.76475 31.3302C5.34456 29.047 6.62925 27.0381 8.36872 25.5489C10.3415 23.86 12.8989 22.84 15.6849 22.8472L24.0426 22.864C24.9521 22.8664 25.835 22.9771 26.6794 23.184C27.4541 23.3741 28.1975 23.6435 28.9 23.9828C28.9241 23.9659 28.9481 23.9491 28.9722 23.9347L28.9818 23.9274C29.0059 23.9106 29.0299 23.8962 29.054 23.8793L29.0564 23.8769C29.131 23.8288 29.208 23.7807 29.2826 23.7326L29.297 23.7253C29.398 23.6628 29.4991 23.6026 29.6025 23.5449L29.6194 23.5353C29.6434 23.5208 29.6675 23.5088 29.6915 23.4944L29.6988 23.492C29.7733 23.4511 29.8503 23.4102 29.9273 23.3693L29.9514 23.3572C29.973 23.3452 29.9947 23.3356 30.0163 23.3236L30.0428 23.3091C30.115 23.273 30.1871 23.2369 30.2593 23.2033L30.2882 23.1888C30.3098 23.1792 30.3315 23.1672 30.3556 23.1576L30.3796 23.1455C30.4301 23.1215 30.4807 23.0998 30.5312 23.0758L30.536 23.0734C30.5576 23.0637 30.5793 23.0541 30.6034 23.0445L30.6346 23.03L30.6996 23.0036L30.7405 22.9867C30.7597 22.9795 30.779 22.9699 30.7982 22.9627C30.8271 22.9507 30.856 22.9386 30.8872 22.9266C30.9089 22.9194 30.9281 22.9098 30.9474 22.9025L30.9907 22.8857L31.0484 22.864L31.0917 22.8472C31.111 22.84 31.1302 22.8328 31.1519 22.8256C31.1808 22.8135 31.212 22.8039 31.2409 22.7943L31.2962 22.775C31.3131 22.7678 31.3323 22.763 31.3516 22.7558L31.4021 22.7389L31.5128 22.7053C31.544 22.6956 31.5729 22.686 31.6042 22.6764H31.6066L31.6595 22.6595L31.71 22.6451L31.7678 22.6283L31.8736 22.5994C31.9073 22.5898 31.9386 22.5802 31.9723 22.5729L32.0156 22.5609C32.0372 22.5561 32.0613 22.5489 32.083 22.5441L32.1311 22.532C32.1527 22.5272 32.1744 22.52 32.196 22.5152L32.2417 22.5032C32.2754 22.496 32.3115 22.4863 32.3452 22.4791L32.3789 22.4719C32.4053 22.4671 32.4294 22.4599 32.4559 22.4551L32.5016 22.4454L32.5713 22.431L32.617 22.4214C32.6531 22.4142 32.6868 22.4069 32.7229 22.3997L32.7566 22.3925C32.7831 22.3877 32.8095 22.3829 32.8384 22.3781L32.8817 22.3708C32.9082 22.366 32.9346 22.3612 32.9635 22.3564L32.9972 22.3516C33.0333 22.3444 33.0718 22.3396 33.1102 22.3348L33.1415 22.3299C33.1704 22.3251 33.1969 22.3227 33.2257 22.3179L33.269 22.3131C33.2955 22.3083 33.3244 22.3059 33.3508 22.3011L33.3845 22.2963C33.423 22.2915 33.4615 22.2866 33.5 22.2818L33.5144 22.2794C33.5481 22.2746 33.5818 22.2722 33.6155 22.2674L33.654 22.2626C33.6804 22.2602 33.7093 22.2578 33.7358 22.2554L33.7718 22.253C33.8103 22.2506 33.8488 22.2457 33.8873 22.2433H33.8921L33.9042 22.2409C33.9379 22.2385 33.9739 22.2361 34.0076 22.2337L34.0413 22.2313C34.0702 22.2289 34.1014 22.2289 34.1303 22.2265L34.1664 22.2241C34.2049 22.2217 34.2458 22.2193 34.2843 22.2193H34.2963C34.3324 22.2169 34.3685 22.2169 34.4046 22.2145H34.4431C34.4719 22.2121 34.4984 22.2121 34.5273 22.2121H34.5658C34.6067 22.2097 34.6452 22.2097 34.6861 22.2097H34.8112H34.8256C34.8641 22.2097 34.9026 22.2121 34.9411 22.2121H34.9675C34.9964 22.2145 35.0253 22.2145 35.0542 22.2145L35.0471 22.2145ZM25.922 37.9057C25.0294 36.4646 24.4833 34.7853 24.3991 32.9857L24.3967 32.9521V32.9304L24.3943 32.9015L24.3919 32.8703V32.851L24.3895 32.8005V32.7764L24.387 32.7548V32.75L24.3846 32.6995V32.6489V32.6369V32.6225V32.5984V32.4925V32.3843V32.3795V32.3506V32.3458C24.3846 32.3121 24.387 32.2784 24.387 32.2447V32.2423V32.2135V32.2087V32.2063V32.2038C24.387 32.175 24.3895 32.1461 24.3895 32.1172V32.1148V32.1124L24.3919 32.0691V32.0643V32.0619V32.0595C24.3919 32.0427 24.3943 32.0234 24.3943 32.0066V32.0018V31.9994V31.9969V31.9945L24.3967 31.944V31.9392V31.9368C24.3991 31.9127 24.3991 31.8911 24.4015 31.867V31.8646V31.8622V31.8598V31.8574V31.855V31.8526V31.8502V31.8478V31.8454L24.4063 31.79L24.4087 31.7491V31.7467V31.7443V31.7419V31.7395V31.7371V31.7347V31.7299V31.7275V31.7251C24.4111 31.6962 24.4135 31.6673 24.4159 31.6385V31.6361V31.6337V31.6313V31.6289V31.6265V31.624V31.6216V31.6192L24.4183 31.6072C24.4544 31.179 24.517 30.7579 24.6036 30.3441V30.3417C24.6661 30.0434 24.7431 29.7475 24.8321 29.4588C24.8418 29.4227 24.8538 29.389 24.8634 29.3553L24.8658 29.3457C24.8778 29.312 24.8875 29.2783 24.8995 29.2447L24.9019 29.2398C24.9717 29.0257 25.0511 28.814 25.1353 28.6071C25.1473 28.5759 25.1593 28.5446 25.1738 28.5157L25.181 28.4989C25.193 28.47 25.205 28.4411 25.2171 28.4123L25.2267 28.3906C25.2387 28.3617 25.2532 28.3329 25.2652 28.3016L25.2724 28.2872C25.2844 28.2583 25.2989 28.2294 25.3109 28.2005L25.3205 28.1789C25.3325 28.15 25.347 28.1236 25.359 28.0947L25.3662 28.0827C25.4288 27.9503 25.4937 27.8204 25.5611 27.6929L25.5635 27.6905C25.5779 27.6616 25.5948 27.6304 25.6092 27.6015L25.6164 27.5895C25.6309 27.563 25.6429 27.5389 25.6573 27.5125L25.6742 27.4836C25.6862 27.462 25.6982 27.4379 25.7127 27.4162L25.7319 27.3826C25.7439 27.3609 25.756 27.3392 25.7704 27.3152L25.7897 27.2815C25.8017 27.2599 25.8161 27.2382 25.8282 27.2141L25.8498 27.1805C25.8618 27.1588 25.8763 27.1372 25.8883 27.1155L25.9075 27.0842C25.922 27.0602 25.9364 27.0385 25.9508 27.0145L25.9605 27C26.0134 26.9182 26.0639 26.8364 26.1193 26.7546L26.1361 26.7282C26.1481 26.7089 26.1626 26.6897 26.1746 26.6728L26.2035 26.6295C26.2155 26.6127 26.2275 26.5934 26.2395 26.5766L26.2684 26.5357C26.2804 26.5189 26.2949 26.4996 26.3069 26.4804L26.3358 26.4395L26.3743 26.3865L26.4055 26.3456C26.4176 26.3288 26.432 26.3095 26.444 26.2927L26.4753 26.2518C26.4898 26.235 26.5018 26.2157 26.5162 26.1989L26.5427 26.1628C26.5571 26.1435 26.5716 26.1243 26.586 26.1075L26.6125 26.0738C26.6269 26.0545 26.6413 26.0377 26.6558 26.0184C26.6798 25.9896 26.7015 25.9607 26.7255 25.9318V25.9294C26.74 25.9126 26.752 25.8981 26.7664 25.8813L26.8001 25.8404C26.8145 25.8236 26.8266 25.8091 26.841 25.7923C26.853 25.7779 26.8651 25.7634 26.8771 25.749C26.8915 25.7321 26.9036 25.7177 26.918 25.7033L26.9517 25.6648C26.9661 25.6479 26.9805 25.6311 26.995 25.6167L27.0311 25.5758L27.072 25.5325L27.1105 25.4892L27.1538 25.4434L27.1899 25.4049L27.2332 25.3592L27.2692 25.3232C27.2861 25.3063 27.3005 25.2895 27.3174 25.2726L27.3246 25.2654C27.3486 25.2414 27.3703 25.2173 27.3943 25.1932L27.4906 25.097C27.5146 25.0729 27.5411 25.0489 27.5652 25.0248L27.5796 25.0104C27.6037 24.9887 27.6277 24.9647 27.6518 24.943L27.6758 24.9214C27.6975 24.9021 27.7191 24.8829 27.7384 24.8636L27.7673 24.8372C27.7865 24.8203 27.8033 24.8035 27.8226 24.7866L27.8635 24.7506L27.8731 24.7409L27.914 24.7048C27.9308 24.6904 27.9453 24.6784 27.9621 24.6639L27.9717 24.6543L27.9814 24.6471L28.0054 24.6279L28.0126 24.6206C27.5074 24.4065 26.9829 24.2309 26.4416 24.0986C25.6669 23.9085 24.861 23.8075 24.0333 23.8051L15.6757 23.7882C13.1303 23.7834 10.7942 24.7169 8.99196 26.259C7.21645 27.7771 5.96299 29.8894 5.54196 32.2784C5.92208 32.7211 6.32144 33.1469 6.74006 33.5511L6.75209 33.5607C6.80261 33.6088 6.85313 33.6593 6.90365 33.7075L6.94937 33.7508C6.98786 33.7868 7.02394 33.8205 7.06244 33.8566L7.1298 33.9168C7.15146 33.9384 7.17551 33.9577 7.19717 33.9793C7.23566 34.0154 7.27416 34.0491 7.31265 34.0828L7.36799 34.1309C7.41129 34.1694 7.45459 34.2055 7.4979 34.244L7.53399 34.2752C7.58211 34.3185 7.63263 34.3594 7.68074 34.4027L7.69277 34.4124C10.7482 36.9914 14.6314 38.6202 18.8897 38.8367H18.8946C18.9715 38.8415 19.0461 38.8439 19.1231 38.8463H19.1448C19.2169 38.8487 19.2915 38.8512 19.3661 38.8536H19.3926C19.4647 38.856 19.5393 38.8584 19.6115 38.8584H19.6356C19.7101 38.8608 19.7871 38.8608 19.8641 38.8608H19.9194H19.9724H20.0277H20.0806H20.1336L20.1889 38.8584L21.1416 38.8151L21.6709 38.7669L22.0943 38.7285L22.6766 38.6491L22.7271 38.6418L22.78 38.6346L22.9821 38.6058L23.2347 38.5576L23.5812 38.4999L23.6654 38.4831L23.9252 38.4253L24.0094 38.4061L24.1393 38.3772L24.2235 38.3579L24.3077 38.3363C24.3631 38.3219 24.4208 38.3098 24.4761 38.2954C24.9645 38.1727 25.4457 38.0308 25.9172 37.872L25.922 37.9057ZM38.0213 29.678V29.3171C38.0213 28.398 37.646 27.5632 37.0396 26.957C36.4333 26.3507 35.5986 25.9754 34.6795 25.9754C33.7605 25.9754 32.9257 26.3507 32.3194 26.957C31.7132 27.5633 31.3378 28.398 31.3378 29.3171V29.678H38.0234H38.0213ZM30.3589 29.7381C29.9884 29.8295 29.6564 30.022 29.3942 30.2818C29.0213 30.6547 28.7903 31.1696 28.7903 31.735V36.6116C28.7903 37.177 29.0213 37.6918 29.3942 38.0648C29.7671 38.4377 30.2819 38.6686 30.8473 38.6686H38.5097C39.075 38.6686 39.5899 38.4377 39.9628 38.0648C40.3357 37.6919 40.5667 37.177 40.5667 36.6116V31.735C40.5667 31.1696 40.3357 30.6547 39.9628 30.2818C39.7006 30.0196 39.3686 29.8271 38.9981 29.7381V29.3171C38.9981 28.1286 38.5121 27.0484 37.7302 26.2665C36.9483 25.4846 35.8681 24.9986 34.6796 24.9986C33.4911 24.9986 32.4109 25.4846 31.629 26.2665C30.8471 27.0484 30.3611 28.1286 30.3611 29.3171V29.7381H30.3589ZM30.8473 37.6893H38.5097C38.8056 37.6893 39.075 37.569 39.2723 37.3717C39.4672 37.1769 39.5899 36.9074 39.5899 36.6091V31.7324C39.5899 31.4365 39.4696 31.167 39.2723 30.9698C39.075 30.7749 38.808 30.6522 38.5097 30.6522H30.8473C30.5514 30.6522 30.2819 30.7725 30.0846 30.9698C29.8898 31.1646 29.7671 31.4365 29.7671 31.7324V36.6091C29.7671 36.905 29.8874 37.1745 30.0846 37.3717C30.2819 37.5666 30.549 37.6893 30.8473 37.6893ZM26.6178 26.1031C26.6323 26.0838 26.6467 26.067 26.6611 26.0478L26.6178 26.1031ZM30.7438 22.9875L30.8016 22.9635C30.7823 22.9707 30.7631 22.9803 30.7438 22.9875ZM30.8882 22.9298C30.9098 22.9226 30.9291 22.9129 30.9483 22.9057L30.8882 22.9298ZM31.0951 22.8504L31.1552 22.8287C31.136 22.836 31.1167 22.8432 31.0951 22.8504ZM19.8741 6.60615C17.8868 6.60615 16.0849 7.41211 14.7809 8.71609C13.477 10.0201 12.671 11.8196 12.671 13.8092C12.671 15.7965 13.477 17.5984 14.7809 18.9024C16.0849 20.2063 17.8845 21.0123 19.8741 21.0123C21.8613 21.0123 23.6633 20.2063 24.9672 18.9024C26.2712 17.5984 27.0772 15.7988 27.0772 13.8092C27.0772 11.822 26.2712 10.0201 24.9672 8.71609C23.6633 7.41211 21.8637 6.60615 19.8741 6.60615ZM24.2768 9.40657C23.1508 8.28065 21.5942 7.58296 19.8765 7.58296C18.1587 7.58296 16.6021 8.28065 15.4762 9.40657C14.3503 10.5325 13.6526 12.0891 13.6526 13.8068C13.6526 15.5246 14.3503 17.0812 15.4762 18.2071C16.6021 19.333 18.1588 20.0307 19.8765 20.0307C21.5943 20.0307 23.1508 19.333 24.2768 18.2071C25.4027 17.0812 26.1004 15.5246 26.1004 13.8068C26.1004 12.089 25.4027 10.5325 24.2768 9.40657ZM24.2286 38.39C24.2575 38.3828 24.284 38.3755 24.3128 38.3683L24.2286 38.39Z" fill="#0B8D46"/>
</svg>
